# xmcd
#
# Track frame offsets: 
#        150
#        18590
#        40073
#        53354
#        68053
#        82399
#        100776
#        117970
#        129774
#        148710
#        168451
#        185348
#        205931
#        221835
#        239378
#        258271
#        279165
#
# Disc length: 4240 seconds
#
# Revision: 0
# Processed by: cddbd v1.5.2PL0 Copyright (c) Steve Scherf et al.
# Submitted via: ExactAudioCopyFreeDBPlugin 1.0
#
DISCID=ee108e11
DTITLE=Various Artist - Wilcovered
DYEAR=2019
DGENRE=Alternative
TTITLE0=Cate Le Bon - Company In My Back
TTITLE1=Parquet Courts - I Got Drugs (At The End Of The Century)
TTITLE2=Courtney Barnett - Dawned On Me
TTITLE3=Whitney - Far Far Away
TTITLE4=Kurt Vile - Passenger Side
TTITLE5=Low - War On War
TTITLE6=OHMME - Kicking Television
TTITLE7=Mountain Man - You and I
TTITLE8=Ryley Walker - Love Is Everywhere (Beware)
TTITLE9=Jen Cloher - Impossible Germany
TTITLE10=James Elkington - Black Moon
TTITLE11=Sharon Van Etten - Radio Cure
TTITLE12=Liam Kazar - Sunloathe
TTITLE13=Kacy and Clayton - How To Fight Loneliness
TTITLE14=Puss N Boots - Jesus, Etc
TTITLE15=The Handsome Family - Capitol City
TTITLE16=Twin Peaks - Spiders (Kidsmoke)
EXTD=
EXTT0=
EXTT1=
EXTT2=
EXTT3=
EXTT4=
EXTT5=
EXTT6=
EXTT7=
EXTT8=
EXTT9=
EXTT10=
EXTT11=
EXTT12=
EXTT13=
EXTT14=
EXTT15=
EXTT16=
PLAYORDER=
